<svg xmlns="http://www.w3.org/2000/svg" xmlns:xlink="http://www.w3.org/1999/xlink" viewBox="0 0 64 64"><defs><linearGradient id="a" x1="12" x2="30" y1="12" y2="12" gradientUnits="userSpaceOnUse"><stop offset="0" stop-color="#9dd5df"/><stop offset="1" stop-color="#c3e1f5"/></linearGradient><linearGradient id="d" x1="34" x2="52" xlink:href="#a"/><linearGradient id="b" x1="4" x2="8" y1="34" y2="34" gradientUnits="userSpaceOnUse"><stop offset="0" stop-color="#d4d8e1"/><stop offset="1" stop-color="#f3f4f5"/></linearGradient><linearGradient id="e" x1="0" x2="12" y1="62" y2="62" xlink:href="#b"/><linearGradient id="c" x1="2" x2="10" y1="20" y2="20" gradientUnits="userSpaceOnUse"><stop offset="0" stop-color="#e9a254"/><stop offset="1" stop-color="#f4bb79"/></linearGradient><linearGradient id="f" x1="56" x2="60" xlink:href="#b"/><linearGradient id="g" x1="52" x2="64" y1="62" y2="62" xlink:href="#b"/><linearGradient id="h" x1="54" x2="62" xlink:href="#c"/><linearGradient id="i" x1="10" x2="54" y1="20" y2="20" gradientUnits="userSpaceOnUse"><stop offset="0" stop-color="#fbcc88"/><stop offset="1" stop-color="#ffe5c3"/></linearGradient><linearGradient id="j" x1="15" x2="27" y1="39.5" y2="39.5" gradientUnits="userSpaceOnUse"><stop offset="0" stop-color="#da5466"/><stop offset="1" stop-color="#f4929c"/></linearGradient><linearGradient id="k" x1="37" x2="49" y1="39.5" y2="39.5" gradientUnits="userSpaceOnUse"><stop offset="0" stop-color="#8cdd79"/><stop offset="1" stop-color="#d4e6b6"/></linearGradient></defs><rect width="18" height="4" x="12" y="10" fill="url(#a)" rx="1"/><path fill="#d7f1ff" d="M21,58a8,8,0,0,1-8-8V14H29V50A8,8,0,0,1,21,58Z"/><rect width="18" height="4" x="34" y="10" fill="url(#d)" rx="1"/><path fill="#d7f1ff" d="M43,58a8,8,0,0,1-8-8V14H51V50A8,8,0,0,1,43,58Z"/><path fill="url(#b)" d="M8,60H4V10a2,2,0,0,1,4,0Z"/><path fill="url(#e)" d="M3,60H9a3,3,0,0,1,3,3v1a0,0,0,0,1,0,0H0a0,0,0,0,1,0,0V63A3,3,0,0,1,3,60Z"/><rect width="8" height="8" x="2" y="16" fill="url(#c)" rx="2"/><path fill="url(#f)" d="M60,60H56V10a2,2,0,0,1,4,0Z"/><path fill="url(#g)" d="M55,60h6a3,3,0,0,1,3,3v1a0,0,0,0,1,0,0H52a0,0,0,0,1,0,0V63A3,3,0,0,1,55,60Z"/><rect width="8" height="8" x="54" y="16" fill="url(#h)" rx="2"/><rect width="44" height="4" x="10" y="18" fill="url(#i)"/><path fill="url(#j)" d="M15,24V49a6,6,0,0,0,12,0V26H25.24A9.37,9.37,0,0,1,21,25C18.71,23.85,16.93,24,15,24Z"/><path fill="url(#k)" d="M37,24V49a6,6,0,0,0,12,0V26H47.24A9.37,9.37,0,0,1,43,25C40.71,23.85,38.93,24,37,24Z"/><circle cx="22" cy="5" r="2" fill="#ffabb7"/><circle cx="46" cy="4" r="2" fill="#e7f4ce"/><circle cx="18" cy="1" r="1" fill="#ffabb7"/><circle cx="40" cy="7" r="1" fill="#e7f4ce"/></svg>