<svg xmlns="http://www.w3.org/2000/svg" enable-background="new 0 0 512 512" viewBox="0 0 512 512"><path fill="#f96464" d="M395.605,367.508l-86.394,86.394c-69.801,69.8-183.391,69.801-253.192,0c-69.863-69.863-69.831-183.422-0.031-253.223l86.394-86.394l62.378,62.378l-86.394,86.394c-35.4,35.399-35.431,93.005,0,128.436s93.068,35.431,128.467,0.031l86.394-86.394L395.605,367.508z"/><path fill="#f96464" d="M395.605,367.508l-86.394,86.394c-69.801,69.8-183.391,69.801-253.192,0c-69.863-69.863-69.831-183.422-0.031-253.223l86.394-86.394l62.378,62.378l-86.394,86.394c-35.4,35.399-35.431,93.005,0,128.436s93.068,35.431,128.467,0.031l86.394-86.394L395.605,367.508z"/><path fill="#fff" d="M118.824,172.149l23.556-23.556c2.584-2.584,2.584-6.773,0-9.357h0c-2.584-2.584-6.773-2.584-9.357,0l-23.556,23.556c-2.584,2.584-2.584,6.773,0,9.357l0,0C112.051,174.732,116.241,174.732,118.824,172.149z" opacity=".4"/><path fill="#66d5f2" d="M395.605,367.508l-86.394,86.394c-69.801,69.8-183.391,69.801-253.192,0l62.347-62.409c35.431,35.431,93.068,35.431,128.467,0.031l86.394-86.394L395.605,367.508z"/><path d="M395.605,367.508l-86.394,86.394c-69.801,69.8-183.391,69.801-253.192,0l0.593-0.593c70.237,57.949,174.721,54.082,240.404-11.602l86.394-86.394L395.605,367.508z" opacity=".08"/><path fill="#f2f0f0" d="M204.735 176.662l27.859-27.859c5.168-5.168 5.168-13.546 0-18.713L188.93 86.425c-5.168-5.168-13.546-5.168-18.713 0l-27.859 27.859L204.735 176.662zM395.581 367.508l27.859-27.859c5.168-5.168 5.168-13.546 0-18.713l-43.664-43.665c-5.168-5.168-13.546-5.168-18.713 0l-27.859 27.859L395.581 367.508z"/><path fill="#ffce29" d="M298.428 6.394l-56.214 21.883c-5.935 2.31-7.541 9.955-3.038 14.458l11.106 11.106-22.826 22.826c-6.554 6.554.141 17.488 8.958 14.629l56.624-18.357c6.268-2.032 8.177-9.97 3.517-14.629l-11.676-11.676 23.331-26.145C314.385 13.569 307.07 3.03 298.428 6.394zM496.295 204.26l-56.214 21.883c-5.935 2.31-7.541 9.955-3.038 14.458l11.106 11.106-22.826 22.826c-6.554 6.554.141 17.488 8.958 14.629l56.624-18.357c6.268-2.032 8.177-9.97 3.517-14.629L482.745 244.5l23.331-26.145C512.251 211.435 504.937 200.896 496.295 204.26z"/></svg>