<svg version="1.1" id="Layer_1" xmlns="http://www.w3.org/2000/svg" x="0" y="0" viewBox="0 0 256 256" style="enable-background:new 0 0 256 256" xml:space="preserve"><style>.st0{fill:#3a312a}.st1{fill:#d6df58}</style><path class="st1" d="M48.045 26.295C47.071 37.859 35.02 39.684 35.02 39.684c10.347.487 12.925 14.059 12.925 14.059.221-9.677 13.321-14.202 13.321-14.202-9.813-.586-13.221-13.246-13.221-13.246z"/><path class="st0" d="M61.356 38.044c-8.605-.514-11.832-12.024-11.863-12.14a1.5 1.5 0 0 0-2.942.265c-.86 10.215-11.313 11.964-11.754 12.033a1.5 1.5 0 0 0 .155 2.982c9.028.425 11.498 12.718 11.523 12.842a1.5 1.5 0 0 0 2.973-.248c.194-8.509 12.191-12.777 12.313-12.819a1.502 1.502 0 0 0 .994-1.623 1.506 1.506 0 0 0-1.399-1.292zM47.79 48.39c-1.357-3.13-3.709-6.907-7.587-8.876 2.931-1.405 6.409-3.913 8.202-8.272 1.551 3.071 4.2 6.88 8.334 8.722-3.007 1.639-6.922 4.405-8.949 8.426z"/><path class="st1" d="M26.346 43.276c-.689 8.179-9.212 9.471-9.212 9.471 7.318.344 9.142 9.944 9.142 9.944.156-6.845 9.422-10.046 9.422-10.046-6.941-.415-9.352-9.369-9.352-9.369z"/><path class="st0" d="M35.788 51.148c-5.767-.345-7.973-8.185-7.994-8.265a1.5 1.5 0 0 0-2.942.266c-.579 6.871-7.647 8.067-7.942 8.114a1.5 1.5 0 0 0 .155 2.981c6.035.284 7.723 8.644 7.739 8.726a1.5 1.5 0 0 0 2.973-.246c.13-5.71 8.331-8.634 8.413-8.662a1.5 1.5 0 0 0-.402-2.914zm-9.585 6.795c-.924-1.885-2.34-3.947-4.447-5.28 1.856-1.041 3.697-2.629 4.87-4.916 1.057 1.874 2.655 3.954 4.941 5.224-1.849 1.1-3.988 2.739-5.364 4.972z"/><path class="st1" d="M26.346 16.618c-.689 8.179-9.212 9.471-9.212 9.471 7.318.344 9.142 9.944 9.142 9.944.156-6.845 9.422-10.045 9.422-10.045-6.941-.416-9.352-9.37-9.352-9.37z"/><path class="st0" d="M35.788 24.49c-5.767-.345-7.973-8.185-7.994-8.265a1.5 1.5 0 0 0-2.942.266c-.579 6.871-7.647 8.067-7.942 8.114a1.5 1.5 0 0 0 .154 2.982c6.036.284 7.724 8.644 7.739 8.726a1.5 1.5 0 0 0 2.973-.246c.13-5.709 8.331-8.634 8.413-8.662a1.5 1.5 0 0 0-.401-2.915zm-9.585 6.795c-.924-1.885-2.34-3.947-4.447-5.279 1.856-1.042 3.697-2.63 4.871-4.917 1.057 1.874 2.655 3.954 4.941 5.224-1.85 1.101-3.989 2.74-5.365 4.972z"/><path d="M129.7 22.141c-.98-.83-2.42-.83-3.4 0l-98.8 83.8v133.55h201v-133.55l-98.8-83.8z" style="fill:#8ac5dc"/><path class="st0" d="m229.47 104.797-98.8-83.8a4.12 4.12 0 0 0-5.34 0l-98.8 83.8c-.336.285-.53.704-.53 1.144v133.55a1.5 1.5 0 0 0 1.5 1.5h201a1.5 1.5 0 0 0 1.5-1.5v-133.55a1.5 1.5 0 0 0-.53-1.144zM227 237.991H29V106.636l98.269-83.35a1.128 1.128 0 0 1 1.461 0l98.27 83.35v131.355z"/><path d="M243.059 111.113 134.225 18.8a9.601 9.601 0 0 0-12.453.004l-38.34 32.52-10.003 8.485-60.487 51.305A7 7 0 0 0 22 121.79l106-89.912 106.001 89.911a6.975 6.975 0 0 0 4.525 1.662 7 7 0 0 0 4.533-12.338z" style="fill:#ef6d7a"/><path class="st0" d="M247.001 115.756a8.444 8.444 0 0 0-2.973-5.787L135.194 17.655a11.1 11.1 0 0 0-14.392.004L82.461 50.18a1.5 1.5 0 0 0 1.94 2.288l38.34-32.52a8.107 8.107 0 0 1 10.513-.004l108.834 92.313a5.463 5.463 0 0 1 1.923 3.745 5.46 5.46 0 0 1-1.288 4.007 5.495 5.495 0 0 1-4.197 1.942 5.505 5.505 0 0 1-3.555-1.306L128.97 30.734a1.499 1.499 0 0 0-1.94 0l-106.001 89.91a5.507 5.507 0 0 1-7.753-.636 5.464 5.464 0 0 1-1.287-4.007 5.467 5.467 0 0 1 1.923-3.745l60.487-51.305a1.5 1.5 0 1 0-1.94-2.288l-60.487 51.305a8.444 8.444 0 0 0-2.973 5.787 8.442 8.442 0 0 0 1.99 6.193c3.032 3.574 8.406 4.016 11.981.983L128 33.845l105.031 89.088a8.51 8.51 0 0 0 5.496 2.018 8.49 8.49 0 0 0 6.485-3.001 8.445 8.445 0 0 0 1.989-6.194z"/><path d="m128 33.844-8 6.79 87.121 73.89a10.984 10.984 0 0 1 3.879 8.377v115.093h16v-120.18l-99-83.97z" style="fill:#6ca6be"/><path style="fill:#87796f" d="M92 123.001h72v116.49H92z"/><path class="st0" d="M164 121.501H92a1.5 1.5 0 0 0-1.5 1.5v35.885a1.5 1.5 0 1 0 3 0v-34.385h69v113.49h-69v-64.877a1.5 1.5 0 1 0-3 0v66.377a1.5 1.5 0 0 0 1.5 1.5h72a1.5 1.5 0 0 0 1.5-1.5v-116.49a1.5 1.5 0 0 0-1.5-1.5z"/><circle cx="149.5" cy="180.501" r="6.595" style="fill:#f4e0c4"/><path class="st0" d="M149.5 172.406c-4.464 0-8.095 3.631-8.095 8.095s3.631 8.095 8.095 8.095 8.095-3.631 8.095-8.095-3.631-8.095-8.095-8.095zm0 13.19a5.1 5.1 0 0 1-5.095-5.095 5.1 5.1 0 0 1 5.095-5.095 5.1 5.1 0 0 1 5.095 5.095 5.1 5.1 0 0 1-5.095 5.095z"/></svg>