<svg xmlns="http://www.w3.org/2000/svg" viewBox="0 0 64 64"><defs><style>.cls-2{fill:#4094c9}.cls-5{fill:none;stroke:#010101;stroke-linecap:round;stroke-linejoin:round;stroke-width:2px}.cls-8{fill:#010101}.cls-10{fill:#fff}</style></defs><g style="isolation:isolate"><g id="Color"><g id="Color-2" data-name="Color"><path class="cls-2" d="M33.33 24.51a3.6 3.6 0 0 0 0 5.14l4.76 4.7L41.8 38v11.75a2.66 2.66 0 0 1-2.66 2.66H28V13.57l-2.22-1-9.53-4.4-8.32-3.85v-.2h31.22a2.66 2.66 0 0 1 2.66 2.66v9.35l-3.71 3.66z"/><path d="M33.33 24.51a3.6 3.6 0 0 0 0 5.14l4.76 4.7v13.88H28V13.57l-2.22-1-9.53-4.4h21.84v11.62z" style="fill:#f0e5cd"/><path class="cls-2" d="M27.95 16v43a1.84 1.84 0 0 1-2.61 1.67l-15.83-7.3a3.51 3.51 0 0 1-2-3.18v-46l.44.2 8.25 3.78 9.53 4.39A3.82 3.82 0 0 1 27.95 16z"/><path d="M59.64 22v10a2 2 0 0 1-2 2H46v2.59a2.35 2.35 0 0 1-4 1.67l-.2-.26-3.71-3.66-4.76-4.7a3.6 3.6 0 0 1 0-5.14l4.76-4.7 3.71-3.66.22-.22a2.36 2.36 0 0 1 4 1.68v2.44h11.63A2 2 0 0 1 59.64 22z" style="fill:#37b44a"/><path class="cls-5" d="M23.54 38.93H22a1.61 1.61 0 0 1-1.61-1.61v-10.1A1.61 1.61 0 0 1 22 25.61h1.56zM11.15 11.85v10.2M11.15 25.62v6.43"/></g></g><g id="Shadow" style="mix-blend-mode:multiply;opacity:.25"><g id="Shadow-2" data-name="Shadow" style="opacity:.25"><path class="cls-8" d="m41.26 16.64-4.76 4.7c-.06.06-.1.13-.16.19l1.75-1.73 3.71-3.66zM31.12 49.26V10.42l-2.22-1L19.37 5l-1.86-.86h-9.6v.2l8.29 3.83 9.53 4.4 2.22 1v38.86h11.17a2.66 2.66 0 0 0 2.66-2.66v-.51z"/><path class="cls-8" d="m35.84 22-.13.15 2.38-2.35zM30.46 45.74V11.08l-2.22-1.02-4.1-1.89h-7.93l9.53 4.4 2.21 1.01v34.66h10.14v-2.5h-7.63z"/><path class="cls-8" d="m43.68 34.86-.22-.22L39.75 31 35 26.28a3.59 3.59 0 0 1-1.06-2.36l-.61.61a3.6 3.6 0 0 0 0 5.14l4.76 4.7 3.7 3.63.22.22a2.35 2.35 0 0 0 4-1.67v-1.11a2.33 2.33 0 0 1-2.33-.58zM59.32 30.59H47.7v2.59a2.32 2.32 0 0 1-.14.8h10.09a2 2 0 0 0 2-2v-1.42a1.73 1.73 0 0 1-.33.03zM13.19 50.69a3.51 3.51 0 0 1-2-3.18V5.84l-3.28-1.5-.44-.2v46a3.5 3.5 0 0 0 2 3.18l15.83 7.3A1.84 1.84 0 0 0 27.95 59v-1.5z"/></g></g><g id="Highlight" style="mix-blend-mode:overlay"><g id="Highlight-2" data-name="Highlight"><path class="cls-10" d="m38.09 19.81 3.71-3.66V6.8a2.66 2.66 0 0 0-2.66-2.66h-1.75A2.66 2.66 0 0 1 40 6.8v9.35l-3.71 3.66-4.76 4.7a3.6 3.6 0 0 0 0 5.14l4.76 4.7L40 38v11.75a2.66 2.66 0 0 1-2.66 2.66h1.75a2.66 2.66 0 0 0 2.66-2.66V38l-3.71-3.66-4.76-4.7a3.6 3.6 0 0 1 0-5.14z"/><path class="cls-10" d="M33.21 24.66 31 26.84A3.6 3.6 0 0 0 31 32l4.76 4.7v11.53h2.33V34.35l-4.76-4.7a3.59 3.59 0 0 1-.12-4.99zM16.21 8.17l5.04 2.32h14.51v11.62l2.33-2.3V8.17H16.21z"/><path class="cls-10" d="m25.74 12.56-9.53-4.39-8.29-3.83-.44-.2v2.24l3.88 1.79 9.53 4.39A3.82 3.82 0 0 1 23.11 16v43a1.67 1.67 0 0 1-.11.59l2.35 1.08A1.84 1.84 0 0 0 28 59V16a3.85 3.85 0 0 0-2.26-3.44zM57.64 20H46v-2.4a2.36 2.36 0 0 0-4-1.68l-.22.22-3.7 3.66-4.76 4.7a1.71 1.71 0 0 0-.11.14L35.84 22l3.71-3.66.22-.22a2.36 2.36 0 0 1 4 1.68v2.44H55.4a2 2 0 0 1 2 2V34h.24a2 2 0 0 0 2-2V22a2 2 0 0 0-2-2z"/></g></g><g id="Line"><g id="Line-2" data-name="Line"><path class="cls-5" d="M33.33 24.51a3.6 3.6 0 0 0 0 5.14l4.76 4.7L41.8 38v11.75a2.66 2.66 0 0 1-2.66 2.66H28V13.57l-2.22-1-9.53-4.4-8.32-3.85v-.2h31.22a2.66 2.66 0 0 1 2.66 2.66v9.35l-3.71 3.66z"/><path class="cls-5" d="M33.33 24.51a3.6 3.6 0 0 0 0 5.14l4.76 4.7v13.88H28V13.57l-2.22-1-9.53-4.4h21.84v11.62z"/><path class="cls-5" d="M27.95 16v43a1.84 1.84 0 0 1-2.61 1.67l-15.83-7.3a3.51 3.51 0 0 1-2-3.18v-46l.44.2 8.25 3.78 9.53 4.39A3.82 3.82 0 0 1 27.95 16zM59.64 22v10a2 2 0 0 1-2 2H46v2.59a2.35 2.35 0 0 1-4 1.67l-.2-.26-3.71-3.66-4.76-4.7a3.6 3.6 0 0 1 0-5.14l4.76-4.7 3.71-3.66.22-.22a2.36 2.36 0 0 1 4 1.68v2.44h11.63A2 2 0 0 1 59.64 22z"/><path class="cls-5" d="M23.54 38.93H22a1.61 1.61 0 0 1-1.61-1.61v-10.1A1.61 1.61 0 0 1 22 25.61h1.56zM11.15 11.85v10.2M11.15 25.62v6.43"/></g></g></g></svg>

