<svg version="1.1" id="Layer_2" xmlns="http://www.w3.org/2000/svg" x="0" y="0" viewBox="0 0 80.3 80.3" style="enable-background:new 0 0 80.3 80.3" xml:space="preserve"><style>.st4{fill:#fff}.st6{fill:#0c2c48}.st7{fill:#f1cc4b}</style><circle cx="40.2" cy="40.2" r="40.2" style="fill:#2384ab"/><path style="fill:#ed6b5a" d="M64.1 67.6H20.5V12.8H52l12.1 12.9z"/><path style="fill:#f6a09c" d="M64.1 25.7H52V12.8z"/><path class="st6" d="M25.5 45.4h26.6V47H25.5zM25.5 51.9h26.6v1.6H25.5zM25.5 58.5h26.6v1.6H25.5zM25.5 19.2h26.6v1.6H25.5zM25.5 25.8h26.6v1.6H25.5zM25.5 32.3h26.6v1.6H25.5zM25.5 38.8h26.6v1.6H25.5z"/><g><path class="st4" d="M69.7 57.7c0 .4-.4.8-.8.8H45c-.4 0-.8-.4-.8-.8v-14c0-.4.4-.8.8-.8h23.9c.4 0 .8.4.8.8v14z"/><path class="st4" d="m39.2 42.9 6.1 5.2v-5.2z"/></g><g><path class="st7" d="M10.6 38.2c0 .3.3.6.6.6h18.7c.3 0 .6-.3.6-.6v-11c0-.3-.3-.6-.6-.6H11.2c-.3 0-.6.3-.6.6v11z"/><path class="st7" d="m34.5 26.6-4.8 4v-4z"/></g><path class="st7" d="M12.2 28.2h16.3v1.4H12.2z"/><g><path class="st6" d="M15.4 32.7c0-.7.5-1.2 1.1-1.2.7 0 1.1.5 1.1 1.2s-.4 1.2-1.1 1.2c-.6-.1-1.1-.6-1.1-1.2zM19.3 32.7c0-.7.5-1.2 1.1-1.2.7 0 1.1.5 1.1 1.2s-.4 1.2-1.1 1.2c-.7-.1-1.1-.6-1.1-1.2zM23.1 32.7c0-.7.5-1.2 1.1-1.2.6 0 1.1.5 1.1 1.2s-.4 1.2-1.1 1.2c-.6-.1-1.1-.6-1.1-1.2z"/></g><g><path class="st6" d="M51.2 51.7c0-.9.6-1.5 1.4-1.5.8 0 1.4.6 1.4 1.5s-.6 1.5-1.5 1.5c-.7 0-1.3-.6-1.3-1.5zM56.1 51.7c0-.9.6-1.5 1.4-1.5.8 0 1.4.6 1.4 1.5s-.6 1.5-1.5 1.5c-.7 0-1.3-.6-1.3-1.5zM61.1 51.7c0-.9.6-1.5 1.4-1.5.8 0 1.4.6 1.4 1.5s-.6 1.5-1.5 1.5c-.7 0-1.3-.6-1.3-1.5z"/></g></svg>