<svg xmlns="http://www.w3.org/2000/svg" viewBox="0 0 256 256" style="enable-background:new 0 0 256 256" xml:space="preserve"><style></style><g id="Layer_1"><path d="M245.885 159.48c5.476-20.515 5.487-42.425 0-62.98h-16.85c-1.89-6.17-4.37-12.04-7.34-17.66l11.93-11.92a122.679 122.679 0 0 0-44.56-44.56l-11.92 11.93c-5.62-2.97-11.49-5.45-17.66-7.35V10.1c-20.518-5.476-42.424-5.486-62.98 0v16.84c-6.17 1.9-12.04 4.38-17.66 7.35l-11.92-11.93a122.679 122.679 0 0 0-44.56 44.56l11.93 11.92c-2.97 5.62-5.45 11.49-7.35 17.66h-16.84c-2.68 10.04-4.11 20.61-4.11 31.49s1.43 21.45 4.11 31.49h16.84c1.9 6.17 4.38 12.04 7.35 17.66l-11.93 11.92c10.7 18.46 26.1 33.86 44.56 44.56l11.92-11.93c5.62 2.97 11.49 5.45 17.66 7.35v16.84c20.518 5.476 42.424 5.486 62.98 0v-16.84c6.17-1.9 12.04-4.38 17.66-7.35l11.92 11.93c18.46-10.7 33.86-26.1 44.56-44.56l-11.93-11.92c2.97-5.62 5.45-11.49 7.34-17.66h16.85zm-119.022 47.257c-44.098 0-79.815-35.76-79.815-79.869s35.717-79.826 79.815-79.826c44.108 0 79.879 35.717 79.879 79.826s-35.771 79.869-79.879 79.869z" style="fill:#72c1e8"/><path d="M126.892 221.444c-19.839 0-38.815-6.061-54.878-17.525a2.5 2.5 0 0 1 2.905-4.07c15.209 10.857 33.181 16.596 51.973 16.596 49.471 0 89.574-40.011 89.574-89.536 0-23.934-9.325-46.439-26.259-63.373a2.499 2.499 0 1 1 3.535-3.535c17.878 17.878 27.724 41.64 27.724 66.908.001 52.233-42.284 94.535-94.574 94.535zM63.995 197.51a97.774 97.774 0 0 1-3.991-3.769 2.5 2.5 0 0 1 3.535-3.537 92.41 92.41 0 0 0 3.786 3.575 2.5 2.5 0 1 1-3.33 3.731z" style="fill:#c5e5ff"/><path d="M159.798 99.46v13.726h-11.474V99.46c0-11.207-9.122-20.329-20.328-20.329s-20.328 9.122-20.328 20.329v13.726H96.192V99.46c0-17.565 14.238-31.803 31.803-31.803s31.803 14.237 31.803 31.803z" style="fill:#efefef"/><path d="M166.565 113.188h-77.14a6.727 6.727 0 0 0-6.727 6.727v49.89a6.727 6.727 0 0 0 6.727 6.727h77.141a6.727 6.727 0 0 0 6.727-6.727v-49.89a6.727 6.727 0 0 0-6.728-6.727z" style="fill:#fc5d3d"/><path d="M136.519 138.835a8.524 8.524 0 0 0-17.048 0 8.498 8.498 0 0 0 2.93 6.422v8.559a5.594 5.594 0 1 0 11.188 0v-8.559a8.5 8.5 0 0 0 2.93-6.422z" style="fill:#4c4945"/><path d="M164.23 170.117h-.765a2.5 2.5 0 1 1 0-5h.765a2.5 2.5 0 1 1 0 5zm-10.764 0H91.058a2.5 2.5 0 0 1-2.5-2.5v-42.592a2.5 2.5 0 1 1 5 0v40.092h59.908a2.5 2.5 0 1 1 0 5z" style="fill:#ffcbc2"/><g><path d="M152.974 51.36c-.5 1.29.16 2.729 1.44 3.229 1.452.503 2.781-.284 3.229-1.45a2.513 2.513 0 0 0-1.439-3.229h-.01c-1.26-.48-2.749.2-3.22 1.45z"/></g><g><path d="M165.585 54.18a2.482 2.482 0 0 0-3.38 1.03 2.495 2.495 0 0 0 1.03 3.38c25.29 13.49 41 39.65 41 68.271 0 42.84-34.684 77.37-77.371 77.37-42.743 0-77.32-34.595-77.32-77.37 0-42.753 34.566-77.32 77.32-77.32 6.19 0 12.35.729 18.31 2.17 1.32.33 2.69-.52 3.01-1.84a2.475 2.475 0 0 0-1.84-3.01 82.59 82.59 0 0 0-19.48-2.32c-45.491 0-82.32 36.829-82.32 82.32 0 45.428 36.749 82.37 82.32 82.37 45.421 0 82.371-36.779 82.371-82.37 0-30.45-16.756-58.342-43.65-72.681z"/></g><g><path d="M127.995 161.91c4.46 0 8.09-3.63 8.09-8.09v-7.511a10.995 10.995 0 0 0 2.93-7.479c0-6.07-4.939-11.021-11.02-11.021s-11.02 4.95-11.03 11.021c0 2.78 1.05 5.439 2.94 7.479v7.511c0 4.46 3.63 8.09 8.09 8.09zm0-29.101c3.31.011 6.02 2.71 6.02 6.021 0 1.76-.739 3.37-2.069 4.54-.54.479-.86 1.16-.86 1.89v8.561c0 1.699-1.39 3.09-3.09 3.09s-3.09-1.391-3.09-3.09v-8.561c0-.729-.32-1.41-.86-1.89a5.943 5.943 0 0 1-2.07-4.54c-.001-3.311 2.699-6.01 6.019-6.021z"/></g><g><circle cx="173.295" cy="137.69" r="2.5"/></g><g><path d="M127.995 65.157c-18.915 0-34.303 15.388-34.303 34.303v11.23h-4.268c-5.09 0-9.23 4.14-9.23 9.22v49.89c0 5.09 4.14 9.23 9.23 9.23h77.14c5.091 0 9.23-4.141 9.23-9.23v-22.11a2.5 2.5 0 0 0-5 0v22.11c-.01 2.33-1.9 4.23-4.23 4.23h-77.14c-2.33 0-4.22-1.9-4.23-4.23v-49.89c.01-2.32 1.9-4.22 4.23-4.22h77.14a4.241 4.241 0 0 1 4.23 4.22v7.78a2.5 2.5 0 0 0 5 0v-7.78c0-5.08-4.14-9.22-9.23-9.22h-4.267V99.46c.001-18.915-15.387-34.303-34.302-34.303zm17.828 45.533h-35.657V99.46c0-9.831 7.998-17.829 17.829-17.829 9.83 0 17.828 7.998 17.828 17.829v11.23zm11.475 0h-6.475V99.46c0-12.588-10.24-22.829-22.828-22.829s-22.829 10.241-22.829 22.829v11.23h-6.474V99.46c0-16.157 13.145-29.303 29.303-29.303 16.157 0 29.303 13.146 29.303 29.303v11.23z"/></g><g><path d="M95.865 248.3c-1.1-.3-1.86-1.29-1.86-2.42v-15.01c-4.94-1.62-9.88-3.68-14.68-6.12l-10.63 10.64c-.78.78-2.07.95-3.02.391a125.163 125.163 0 0 1-45.47-45.471c-.57-.979-.41-2.22.39-3.02l10.64-10.62c-2.44-4.81-4.5-9.75-6.12-14.689h-15.01c-1.13 0-2.12-.761-2.42-1.851a125.01 125.01 0 0 1-3.61-20.08 2.485 2.485 0 0 1 2.25-2.72c1.36-.13 2.59.87 2.73 2.24a118.42 118.42 0 0 0 2.99 17.41h14.9c1.09 0 2.07.729 2.39 1.76 1.79 5.81 4.2 11.609 7.17 17.229.51.98.34 2.16-.44 2.94l-10.56 10.55a120.526 120.526 0 0 0 41.02 41.021l10.55-10.561c.76-.75 1.99-.939 2.94-.439 5.61 2.97 11.41 5.38 17.22 7.17a2.52 2.52 0 0 1 1.77 2.39v14.9c18.85 4.71 39.13 4.71 57.98 0v-14.9c0-1.09.72-2.07 1.76-2.39 5.819-1.79 11.62-4.2 17.229-7.17.95-.5 2.181-.311 2.94.439l10.55 10.561c16.76-10.08 30.94-24.261 41.021-41.021l-10.561-10.55c-.78-.78-.96-1.96-.439-2.94 2.979-5.64 5.39-11.43 7.159-17.22a2.522 2.522 0 0 1 2.391-1.77h14.91c4.639-18.544 4.826-38.713 0-57.98h-14.91a2.48 2.48 0 0 1-2.391-1.77c-1.77-5.79-4.18-11.58-7.159-17.221-.511-.96-.33-2.17.439-2.939l10.561-10.551c-10.08-16.76-24.261-30.939-41.021-41.02l-10.55 10.56c-.76.75-1.99.94-2.94.44-5.609-2.96-11.399-5.38-17.229-7.17a2.512 2.512 0 0 1-1.76-2.39V12.03c-18.87-4.7-39.11-4.7-57.98.01v14.9c0 1.09-.73 2.069-1.77 2.39-5.82 1.79-11.62 4.21-17.22 7.17-.95.5-2.18.31-2.94-.44L66.525 25.5a120.514 120.514 0 0 0-41.02 41.02l10.56 10.551c.77.77.95 1.979.44 2.939-2.97 5.62-5.38 11.41-7.17 17.221a2.522 2.522 0 0 1-2.39 1.77h-14.9c-1.71 6.85-2.82 13.92-3.29 21-.09 1.37-1.27 2.44-2.66 2.33a2.505 2.505 0 0 1-2.33-2.66c.54-8.07 1.86-16.08 3.92-23.81a2.51 2.51 0 0 1 2.42-1.86h15.01c1.62-4.94 3.68-9.88 6.12-14.69L20.595 68.69a2.51 2.51 0 0 1-.39-3.03 125.21 125.21 0 0 1 45.47-45.46c.95-.561 2.24-.391 3.02.39l10.63 10.641c4.79-2.431 9.73-4.49 14.68-6.12V10.099c0-1.13.76-2.119 1.86-2.42 20.84-5.56 43.42-5.56 64.26 0 1.1.29 1.86 1.29 1.86 2.42V25.11a105.023 105.023 0 0 1 14.68 6.12l10.63-10.641a2.54 2.54 0 0 1 3.02-.39 125.129 125.129 0 0 1 45.471 45.46c.569.979.41 2.229-.391 3.03l-10.64 10.619c2.44 4.82 4.5 9.761 6.11 14.69h15.02c1.13 0 2.12.76 2.41 1.85 5.599 20.95 5.604 43.313 0 64.28a2.495 2.495 0 0 1-2.41 1.851h-15.02c-1.61 4.939-3.67 9.88-6.11 14.68l10.64 10.63c.801.8.96 2.04.391 3.02a125.166 125.166 0 0 1-45.471 45.471c-.96.56-2.239.39-3.02-.391l-10.63-10.64c-4.8 2.44-9.74 4.5-14.68 6.12v15.01c0 1.13-.761 2.12-1.86 2.42-20.607 5.494-42.95 5.681-64.26.001zM6.005 132.33c-1.35 0-2.47-1.1-2.5-2.46a2.51 2.51 0 0 1 2.47-2.54h.03c1.36 0 2.47 1.1 2.5 2.45 0 .01.01.01.01.02a2.514 2.514 0 0 1-2.47 2.53h-.04z"/></g></g></svg>