<svg xmlns="http://www.w3.org/2000/svg" width="512" height="512" enable-background="new 0 0 512 512" viewBox="0 0 512 512"><polygon fill="#E8AE00" points="1.75 235.66 138.028 382.107 314.985 487.875 314.985 469.57 138.028 365.835 1.75 213.286"/><polygon fill="#FFD900" points="1.75 213.286 199.048 97.348 335.325 247.864 138.028 365.835"/><polygon fill="#FFD900" points="314.985 469.57 510.25 351.598 335.325 247.864 138.028 365.835"/><polygon fill="#C77E00" points="314.985 469.57 314.985 487.875 510.25 369.904 510.25 351.598"/><polygon fill="#1F5C9C" points="314.985 459.4 314.985 424.822 487.875 319.055 487.875 355.665"/><polygon fill="#FFFBDB" points="327.19 225.489 156.335 331.258 314.985 424.822 487.875 319.055"/><polygon fill="#AED8E8" points="199.048 79.042 22.09 180.742 156.335 331.258 327.19 225.489"/><polygon fill="#639DEB" points="156.335 331.258 22.09 180.742 18.022 217.354 146.165 361.768 314.985 459.4 314.985 424.822"/><polygon fill="#C73D2C" points="152.265 60.736 152.265 201.082 172.605 213.286 172.605 70.906"/><polygon fill="#912621" points="172.605 213.286 192.945 201.082 192.945 60.736 172.605 70.906"/><polygon fill="#FFD900" points="152.265 60.736 152.265 48.532 172.605 58.702 172.605 70.906"/><polygon fill="#E8AE00" points="172.605 58.702 172.605 70.906 192.945 60.736 192.945 48.532"/><polygon fill="#AED8E8" points="172.605 26.158 152.265 36.328 152.265 48.532 172.605 58.702 192.945 48.532 192.945 36.328"/><polygon fill="#FFD900" points="152.265 201.082 164.47 225.489 172.605 241.762 172.605 213.286"/><polygon fill="#E8AE00" points="172.605 213.286 192.945 201.082 180.742 225.489 172.605 241.762"/><polygon fill="#7D878F" points="164.47 225.489 172.605 229.558 172.605 241.762"/><polygon fill="#303030" points="172.605 229.558 180.742 225.489 172.605 241.762"/><polygon fill="#FFFBDB" points="152.265 36.328 172.605 46.498 192.945 36.328 172.605 26.158"/><polygon fill="#E8AE00" points="483.808 121.756 325.155 34.294 325.155 135.994 396.346 178.266 396.346 227.524 416.883 189.873 428.89 194.979 483.808 227.083"/><polygon fill="#639DEB" points="325.155 34.294 343.463 24.124 500.08 111.586 483.808 121.756"/><polygon fill="#1F5C9C" points="483.808 227.083 500.08 214.878 500.08 111.586 483.808 121.756"/><polygon fill="#1F5C9C" points="396.346 227.524 414.652 215.319 428.89 194.979 416.883 189.873"/><polygon fill="#FFFBDB" points="343.463 70.906 343.463 85.145 467.535 154.299 467.535 140.062"/><polygon fill="#FFFBDB" points="343.463 99.382 343.463 113.62 467.535 182.776 467.535 168.538"/><polygon fill="#639DEB" points="190.913 329.225 312.952 400.415 327.19 392.277 205.15 321.088"/><polygon fill="#639DEB" points="219.388 312.952 341.428 384.143 355.665 376.005 233.625 304.815"/><polygon fill="#639DEB" points="247.865 294.647 369.904 365.837 384.143 357.7 262.103 286.51"/></svg>