<svg xmlns="http://www.w3.org/2000/svg" viewBox="0 0 48 48"><defs><style>.cls-1{fill:#dad7e5}.cls-2{fill:#edebf2}.cls-3{fill:#db5669}.cls-4{fill:#f26674}.cls-5{fill:#fc6}.cls-6{fill:#ffde76}.cls-7{fill:#6fabe6}.cls-9{fill:#82bcf4}</style></defs><g id="store_growth" data-name="store growth"><path class="cls-1" d="M6 15.46h36V47H6z"/><path class="cls-2" d="M42 15.46V45H12a3 3 0 0 1-3-3V15.46z"/><path class="cls-3" d="M12 15c0 1.32.11 2.65-1.28 3.93A4 4 0 0 1 4 16v-1z"/><path class="cls-4" d="M12 15c0 1.32.11 2.65-1.28 3.93A4 4 0 0 1 6 15z"/><path class="cls-5" d="M20 15v1a4 4 0 0 1-8 0v-1z"/><path class="cls-3" d="M28 15v1a4 4 0 0 1-8 0v-1z"/><path class="cls-5" d="M36 15v1a4 4 0 0 1-8 0v-1z"/><path class="cls-3" d="M44 15v1a4 4 0 0 1-8 0v-1zM14 6l-2 9H4l3-9h7z"/><path class="cls-4" d="m14 6-1.56 7h-3a2 2 0 0 1-1.89-2.63L9 6z"/><path class="cls-5" d="m21 6-1 9h-8l2-9h7z"/><path class="cls-6" d="m21 6-.78 7h-3.29A2 2 0 0 1 15 10.56L16 6z"/><path class="cls-3" d="M28 15h-8l1-9h6l1 9z"/><path class="cls-4" d="M27.78 13h-3.32a2 2 0 0 1-2-2.22L23 6h4z"/><path class="cls-5" d="M36 15h-8l-1-9h7l2 9z"/><path class="cls-6" d="M35.56 13h-4a2 2 0 0 1-2-1.78L29 6h5z"/><path class="cls-3" d="M44 15h-8l-2-9h7l3 9z"/><path class="cls-4" d="M43.33 13h-4.17a2 2 0 0 1-1.95-1.56L36 6h5z"/><path class="cls-1" d="M7 1h34v5H7z"/><path class="cls-2" d="M41 1v3H13a3 3 0 0 1-3-3z"/><path class="cls-7" d="M11 37h6v10h-6zM21 33h6v14h-6zM31 29h6v18h-6z"/><path d="M44 48H4a1 1 0 0 1 0-2h40a1 1 0 0 1 0 2z" style="fill:#919191"/><path class="cls-4" d="M20.23 23.32a1 1 0 0 0-.34 2l1.56.28-8 5.61A1 1 0 0 0 14 33c.45 0-.12.3 8.6-5.8l-.28 1.57a1 1 0 0 0 2 .34c.99-5.79 1.76-4.76-4.09-5.79z"/><path class="cls-9" d="M17 37c0 8.55-.1 8 0 8a4 4 0 0 1-4-4v-4zM27 33c0 12.64-.1 12 0 12a4 4 0 0 1-4-4v-8zM37 29c0 16.82-.1 16 0 16a4 4 0 0 1-4-4V29z"/><path class="cls-6" d="M20 15c0 1.32.11 2.65-1.28 3.93A4 4 0 0 1 14 15z"/><path class="cls-4" d="M28 15c0 1.32.11 2.65-1.28 3.93A4 4 0 0 1 22 15z"/><path class="cls-6" d="M36 15c0 1.32.11 2.65-1.28 3.93A4 4 0 0 1 30 15z"/><path class="cls-4" d="M44 15c0 1.32.11 2.65-1.28 3.93A4 4 0 0 1 38 15z"/></g></svg>