<svg xmlns="http://www.w3.org/2000/svg" viewBox="0 0 48 48"><defs><style>.cls-1{fill:#ffde91}.cls-7{fill:#190402}</style></defs><g id="_27-email_support" data-name="27-email support"><path class="cls-1" d="m40 25-4 3.5V21l4 4zM12 21v7.5L8 25l4-4z"/><path class="cls-1" d="m12 28.5 7.73 6.77L8 47V25l4 3.5zM36 28.5l4-3.5v22L28.27 35.27 36 28.5z"/><path class="cls-1" d="M40 47H8l11.73-11.73L24 39l4.27-3.73L40 47z"/><circle cx="24" cy="19" r="8" style="fill:#b5efff"/><path d="M18 1v6h-6z" style="fill:#cdd2e1"/><path d="M28.27 35.27 24 39l-4.27-3.73L12 28.5V7h6V1h18v27.5zM32 19a8 8 0 1 0-8 8 8 8 0 0 0 8-8z" style="fill:#f2f6fc"/><path style="fill:#ffac5a" d="m24 42 4.27-3.73L37 47h3L28.27 35.27 24 39l-4.27-3.73L8 47h3l8.73-8.73L24 42z"/><path d="M19 19a8 8 0 0 1 6.5-7.855 8 8 0 1 0 0 15.71A8 8 0 0 1 19 19z" style="fill:#80dbff"/><path class="cls-7" d="M40.7 24.3h.005L37 20.586V1a1 1 0 0 0-1-1H18a1 1 0 0 0-.707.293l-6 6A1 1 0 0 0 11 7v13.586l-3.707 3.707A.993.993 0 0 0 7 25v22a1 1 0 0 0 1 1h32a1 1 0 0 0 1-1V25a.993.993 0 0 0-.3-.7zM11.053 29l7.217 6.315L9 44.586V27.2l2 1.75V29zm8.726 7.635 3.563 3.118a1 1 0 0 0 1.316 0l3.563-3.118L37.586 46H10.414zm9.951-1.32L36.947 29H37v-.046l2-1.75v17.382zm8.807-10.364L37 26.3v-2.886zM35 28.046l-11 9.626-11-9.626V8h5a1 1 0 0 0 1-1V2h16zM14.414 6 17 3.414V6zM11 26.3l-1.537-1.349L11 23.414z"/><path class="cls-7" d="M15 19a9 9 0 1 0 9-9 9.01 9.01 0 0 0-9 9zm16 0a7 7 0 1 1-7-7 7.008 7.008 0 0 1 7 7z"/><path class="cls-7" d="M21 17h2a1 1 0 1 1 1 1 1 1 0 0 0-1 1v2h2v-1.171A3 3 0 1 0 21 17zM23 22h2v2h-2z"/></g></svg>