<svg xmlns="http://www.w3.org/2000/svg" viewBox="0 0 256 256" style="enable-background:new 0 0 256 256" xml:space="preserve"><style>.st2{fill:none;stroke:#6b1d1d;stroke-width:.5;stroke-miterlimit:10}.st3{fill:#3a312a}.st4{fill:#87796f}.st7{fill:#fce8cb}.st8{fill:#f16c7a}.st9{fill:#8ac6dd}.st12{fill-rule:evenodd;clip-rule:evenodd;fill:#fce8cb}.st13{fill:#f5978a}.st14{fill:#d7e057}.st22{fill:#ef6d7a}</style><g id="Layer_1"><path class="st14" d="M35.711 141.379v-1.464a5.89 5.89 0 0 1 5.89-5.89h191.858a5.89 5.89 0 0 1 5.89 5.89v3.355a5.89 5.89 0 0 1-5.89 5.89H41.6a5.89 5.89 0 0 1-5.89-5.89v-1.891z"/><path class="st3" d="M233.458 150.66H41.601c-4.075 0-7.39-3.316-7.39-7.39v-3.355c0-4.074 3.315-7.39 7.39-7.39h191.858c4.075 0 7.39 3.315 7.39 7.39v3.355c-.001 4.075-3.316 7.39-7.391 7.39zM41.601 135.525a4.395 4.395 0 0 0-4.39 4.39v3.355a4.395 4.395 0 0 0 4.39 4.39h191.858c2.42 0 4.39-1.969 4.39-4.39v-3.355a4.395 4.395 0 0 0-4.39-4.39H41.601z"/><path class="st7" d="M112.753 16.72h-59.05a8.596 8.596 0 0 0-8.596 8.596v108.71h184.844V25.316a8.597 8.597 0 0 0-8.596-8.596H112.753z"/><path class="st3" d="M229.951 135.525H45.107a1.5 1.5 0 0 1-1.5-1.5V25.315c0-5.566 4.529-10.096 10.096-10.096h59.049a1.5 1.5 0 1 1 0 3H53.703c-3.913 0-7.096 3.184-7.096 7.096v107.21h181.844V25.315c0-3.912-3.183-7.096-7.096-7.096h-95.804a1.5 1.5 0 1 1 0-3h95.804c5.567 0 10.096 4.529 10.096 10.096v108.71a1.5 1.5 0 0 1-1.5 1.5z"/><path class="st9" d="m120.693 85.717-3.303.89c4.377 16.204 17.879 29.164 35.527 31.992 14.36 2.301 28.209-2.624 37.834-12.099l-30.886-31.34-33.516 9.032-5.656 1.525z"/><path class="st3" d="M159.811 120.647a45.22 45.22 0 0 1-7.132-.566c-17.653-2.829-32.073-15.814-36.738-33.082a1.504 1.504 0 0 1 1.058-1.84l3.304-.891 39.172-10.557a1.498 1.498 0 0 1 1.459.396l30.885 31.341a1.503 1.503 0 0 1-.016 2.123c-8.56 8.424-20.14 13.076-31.992 13.076zm-40.557-32.989c4.751 15.408 17.905 26.897 33.899 29.46 12.79 2.051 25.932-1.923 35.456-10.652l-29.199-29.63-38.327 10.329-1.829.493z"/><path class="st14" d="m179.965 59.68-20.1 15.48 30.885 31.341c6.466-6.352 11.024-14.746 12.568-24.382 1.997-12.465-1.452-24.541-8.593-33.807l-10.016 7.714-4.744 3.654z"/><path class="st3" d="M190.75 108.001c-.388 0-.775-.149-1.068-.447l-30.885-31.341a1.496 1.496 0 0 1 .154-2.241l20.1-15.481 14.76-11.368a1.501 1.501 0 0 1 2.104.273c7.734 10.037 10.89 22.453 8.885 34.96-1.548 9.662-6.042 18.382-12.997 25.215-.294.286-.674.43-1.053.43zm-28.627-32.687 28.626 29.049c5.898-6.211 9.721-13.953 11.088-22.481 1.793-11.187-.834-22.296-7.404-31.451l-32.31 24.883z"/><path class="st8" d="m184.709 56.026 10.016-7.714c-.131-.177-.268-.346-.404-.52-6.592-8.305-16.191-14.262-27.484-16.071-22.82-3.657-44.346 10.939-49.7 33.02l42.727 10.419 20.1-15.48 4.745-3.654z"/><path class="st3" d="M159.865 76.66c-.119 0-.238-.014-.355-.043l-42.728-10.419a1.5 1.5 0 0 1-1.102-1.81c5.547-22.877 28.124-37.87 51.395-34.148a45.369 45.369 0 0 1 28.422 16.62l.123.156c.105.133.208.265.31.401a1.5 1.5 0 0 1-.289 2.083l-10.016 7.715h-.001L160.78 76.349a1.5 1.5 0 0 1-.915.311zm-40.891-13.014 40.546 9.887 33.083-25.48A42.367 42.367 0 0 0 166.6 33.202c-21.251-3.404-41.863 9.896-47.626 30.444zm65.736-7.62h.01-.01z"/><path class="st4" d="m126.349 84.193 33.516-9.032-42.727-10.419a43.678 43.678 0 0 0-.698 3.457 43.821 43.821 0 0 0 .95 18.409l3.303-.89 5.656-1.525z"/><path class="st3" d="M117.388 88.107a1.5 1.5 0 0 1-1.447-1.108c-1.68-6.22-2.01-12.625-.982-19.038.192-1.202.435-2.405.722-3.576a1.498 1.498 0 0 1 1.812-1.101l42.728 10.419a1.5 1.5 0 0 1 .035 2.905L117.78 88.056a1.513 1.513 0 0 1-.392.051zm.876-21.547a44.164 44.164 0 0 0-.344 1.876c-.88 5.493-.694 10.978.551 16.326l7.487-2.018 27.872-7.512-35.566-8.672zM102.378 45.66H71.18a1.5 1.5 0 1 1 0-3h31.198a1.5 1.5 0 1 1 0 3zM102.378 61.035H71.18a1.5 1.5 0 1 1 0-3h31.198a1.5 1.5 0 1 1 0 3zM102.378 76.41H71.18a1.5 1.5 0 1 1 0-3h31.198a1.5 1.5 0 1 1 0 3zM102.378 91.785H71.18a1.5 1.5 0 1 1 0-3h31.198a1.5 1.5 0 1 1 0 3zM102.378 107.16H71.18a1.5 1.5 0 1 1 0-3h31.198a1.5 1.5 0 1 1 0 3zM102.653 131.66a1.5 1.5 0 0 1-.859-2.731l43-30a1.501 1.501 0 0 1 1.716 2.461l-43 30c-.262.182-.561.27-.857.27z"/><path class="st4" d="M43.892 227.27v5.777a6.235 6.235 0 0 1-6.241 6.233h-1.277a6.234 6.234 0 0 1-6.233-6.233v-5.777h13.751z"/><path class="st3" d="M37.651 240.78h-1.277c-4.264 0-7.733-3.469-7.733-7.733v-5.777a1.5 1.5 0 0 1 1.5-1.5h13.752a1.5 1.5 0 0 1 1.5 1.5v5.777c0 4.264-3.473 7.733-7.742 7.733zm-6.01-12.01v4.277a4.738 4.738 0 0 0 4.733 4.733h1.277a4.742 4.742 0 0 0 4.741-4.733v-4.277H31.641z"/><path class="st4" d="M57.636 227.27v5.777a6.234 6.234 0 0 1-6.233 6.233h-1.277a6.234 6.234 0 0 1-6.233-6.233v-5.777h13.743z"/><path class="st3" d="M51.403 240.78h-1.277c-4.264 0-7.733-3.469-7.733-7.733v-5.777a1.5 1.5 0 0 1 1.5-1.5h13.743a1.5 1.5 0 0 1 1.5 1.5v5.777c0 4.264-3.469 7.733-7.733 7.733zm-6.01-12.01v4.277a4.738 4.738 0 0 0 4.733 4.733h1.277a4.738 4.738 0 0 0 4.733-4.733v-4.277H45.393z"/><path class="st14" d="M26.63 173.521h34.846v53.752H26.63z"/><path class="st3" d="M61.476 228.773H26.63a1.5 1.5 0 0 1-1.5-1.5v-53.752a1.5 1.5 0 0 1 1.5-1.5h34.846a1.5 1.5 0 0 1 1.5 1.5v53.752a1.5 1.5 0 0 1-1.5 1.5zm-33.346-3h31.846v-50.752H28.13v50.752z"/><path class="st3" d="M43.887 228.773a1.5 1.5 0 0 1-1.5-1.5v-53.752a1.5 1.5 0 1 1 3 0v53.752a1.5 1.5 0 0 1-1.5 1.5z"/><path class="st7" d="M61.476 125.939v47.585H16.652v-35.442c0-3.842 1.756-7.271 4.501-9.547a12.146 12.146 0 0 1 4.188-2.267 12.323 12.323 0 0 1 3.677-.561h8.162v-5.144c2.3 1.657 4.658 2.638 6.892 2.638 2.267 0 4.592-.915 6.851-2.473v4.979h8.17c.816.001 1.616.084 2.383.232z"/><path class="st3" d="M61.476 175.024H16.652a1.5 1.5 0 0 1-1.5-1.5v-35.441c0-4.144 1.838-8.045 5.044-10.702a13.615 13.615 0 0 1 4.703-2.546 13.869 13.869 0 0 1 4.119-.627h6.662v-3.644a1.501 1.501 0 0 1 2.377-1.218c2.14 1.541 4.22 2.355 6.016 2.355 1.857 0 3.875-.743 5.999-2.208a1.5 1.5 0 0 1 2.352 1.234v3.479h6.67c.883 0 1.781.087 2.668.259a1.5 1.5 0 0 1 1.215 1.473v47.585a1.502 1.502 0 0 1-1.501 1.501zm-43.324-3h41.824v-44.78c-.295-.023-.59-.036-.883-.036h-8.17a1.5 1.5 0 0 1-1.5-1.5v-2.354c-3.643 1.791-7.029 1.827-10.743-.099v2.453a1.5 1.5 0 0 1-1.5 1.5h-8.162c-1.095 0-2.182.166-3.231.492a10.648 10.648 0 0 0-3.676 1.99 10.875 10.875 0 0 0-3.96 8.393v33.941z"/><path class="st4" d="m44.094 133.689-.016.017-.025-.017.016-.024z"/><path class="st3" d="M44.077 135.206c-.288 0-.578-.083-.831-.252a1.536 1.536 0 0 1-.653-.969 1.515 1.515 0 0 1 .22-1.14c.25-.367.658-.617 1.1-.661.442-.039.89.098 1.207.409.286.28.46.676.462 1.076.002.4-.144.797-.427 1.08l-.017.017c-.289.291-.674.44-1.061.44z"/><circle class="st12" cx="22.776" cy="95.283" r="4.88"/><path class="st3" d="M22.776 101.663a6.387 6.387 0 0 1-6.38-6.381 6.387 6.387 0 0 1 6.38-6.38 6.387 6.387 0 0 1 6.38 6.38 6.387 6.387 0 0 1-6.38 6.381zm0-9.761a3.384 3.384 0 0 0-3.38 3.38 3.384 3.384 0 0 0 3.38 3.381 3.384 3.384 0 0 0 3.38-3.381 3.384 3.384 0 0 0-3.38-3.38z"/><path class="st12" d="M70.248 95.283a4.88 4.88 0 1 1-9.76 0 4.88 4.88 0 0 1 9.76 0z"/><path class="st3" d="M65.369 101.663a6.387 6.387 0 0 1-6.38-6.381 6.387 6.387 0 0 1 6.38-6.38 6.387 6.387 0 0 1 6.38 6.38 6.388 6.388 0 0 1-6.38 6.381zm0-9.761a3.384 3.384 0 0 0-3.38 3.38 3.384 3.384 0 0 0 3.38 3.381 3.384 3.384 0 0 0 3.38-3.381 3.385 3.385 0 0 0-3.38-3.38z"/><path class="st7" d="M65.705 92.914c0 11.947-11.506 30.286-21.633 30.286-9.666 0-21.633-18.339-21.633-30.286 0-11.948 9.685-21.633 21.633-21.633 11.948 0 21.633 9.685 21.633 21.633z"/><path class="st3" d="M44.072 124.7c-10.725 0-23.133-19.235-23.133-31.786 0-12.756 10.377-23.133 23.133-23.133 12.755 0 23.133 10.377 23.133 23.133 0 12.84-12.185 31.786-23.133 31.786zm0-51.919c-11.101 0-20.133 9.031-20.133 20.133 0 11.837 11.854 28.786 20.133 28.786 9.14 0 20.133-17.681 20.133-28.786 0-11.102-9.032-20.133-20.133-20.133z"/><path class="st4" d="M44.322 66.507c-12.366 0-22.391 9.584-22.391 21.407 0 1.251.226 2.184.647 3.348.198.549 3.405-1.205 3.677-1.397 1.365-.961 2.481-2.264 3.315-3.704.345-.599.632-1.208.864-1.818.738-1.945 2.743-7.356 4.78-6.931 2.73.569 5.825.891 9.108.891 3.283 0 6.378-.322 9.108-.891 2.036-.424 4.042 4.987 4.779 6.931.231.61.519 1.219.864 1.818 1.377 2.382 3.704 4.651 6.534 5.063.007-.137.18-.183.308-.23.927-.336.797-2.338.797-3.081.001-11.822-10.024-21.406-22.39-21.406z"/><path class="st3" d="M22.746 92.854a1.64 1.64 0 0 1-1.579-1.082c-.442-1.224-.736-2.348-.736-3.858 0-12.631 10.717-22.907 23.891-22.907 13.174 0 23.891 10.276 23.891 22.907l.002.229c.017 1.122.05 3.409-1.583 4.178-.023.021-.047.043-.072.062-.326.27-.748.389-1.169.326-2.917-.425-5.764-2.592-7.617-5.797a14.158 14.158 0 0 1-.967-2.036l-.046-.123c-1.811-4.775-2.801-5.682-3.129-5.851-2.905.598-6.037.9-9.31.9-3.273 0-6.404-.303-9.31-.9-.328.169-1.32 1.075-3.13 5.855l-.045.118a14.135 14.135 0 0 1-.966 2.034c-.985 1.702-2.282 3.147-3.751 4.182-.029.02-2.714 1.763-4.374 1.763zm44.36-1.551v.001-.001zM53.688 75.885c2.551 0 4.332 3.725 5.879 7.806l.046.121c.207.544.463 1.083.761 1.601 1.241 2.146 2.988 3.663 4.776 4.182.054-.284.076-.755.066-1.407l-.003-.272c0-10.977-9.372-19.907-20.891-19.907-11.519 0-20.891 8.931-20.891 19.907 0 .611.065 1.125.185 1.632.682-.305 1.509-.737 1.801-.925 1.091-.769 2.087-1.885 2.854-3.211.297-.516.553-1.055.76-1.599l.044-.116c1.658-4.378 3.587-8.351 6.444-7.752 2.696.562 5.739.859 8.802.859 3.107 0 6.068-.289 8.802-.859.193-.042.381-.06.565-.06z"/><path class="st4" d="M23.715 68.605c1.709 2.694 3.695 5.215 6.025 7.393 2.827 2.643 6.031 4.813 9.402 5.771 8.545 2.429 23.669-.601 23.669-12.9 0-7.865-6.592-17.37-18.895-10.133-15.249 8.971-24.101-8.274-24.101-.41 0 .755.139 1.672.364 2.628.539 2.289 1.507 4.455 2.767 6.44l.769 1.211z"/><path class="st3" d="M45.106 84.035c-2.308 0-4.505-.291-6.374-.823-3.31-.94-6.681-2.999-10.016-6.118-2.268-2.12-4.377-4.706-6.268-7.685l-.767-1.21c-1.409-2.221-2.405-4.542-2.96-6.9-.268-1.137-.404-2.137-.404-2.972 0-1.191.154-2.646 1.352-3.324 1.403-.792 2.893.098 4.954 1.334 4.026 2.415 10.108 6.062 18.533 1.107 6.85-4.028 11.647-2.952 14.465-1.342 4.064 2.325 6.69 7.336 6.69 12.768 0 4.532-1.895 8.358-5.481 11.067-3.812 2.879-9.002 4.098-13.724 4.098zM24.982 67.802c1.754 2.765 3.7 5.153 5.783 7.1 2.984 2.79 5.941 4.615 8.788 5.425 4.854 1.379 12.628.873 17.47-2.785 2.846-2.149 4.289-5.067 4.289-8.673 0-3.584-1.602-8.116-5.18-10.163-3.054-1.747-7.015-1.288-11.454 1.323-9.96 5.86-17.531 1.32-21.598-1.119-.583-.351-1.264-.758-1.753-.998a6.946 6.946 0 0 0-.011.415c0 .595.112 1.385.324 2.283.479 2.032 1.344 4.045 2.573 5.981l.769 1.211z"/><circle class="st3" cx="36.417" cy="92.67" r="2.111"/><path class="st3" d="M53.804 92.67a2.11 2.11 0 1 1-4.222 0 2.11 2.11 0 0 1 4.222 0z"/><path class="st13" d="M35.834 98.947c0 1.502-1.628 2.719-3.637 2.719-2.009 0-3.637-1.217-3.637-2.719 0-1.502 1.628-2.719 3.637-2.719 2.009 0 3.637 1.217 3.637 2.719zM59.549 98.947c0 1.502-1.628 2.719-3.637 2.719-2.009 0-3.637-1.217-3.637-2.719 0-1.502 1.628-2.719 3.637-2.719 2.009 0 3.637 1.217 3.637 2.719z"/><path class="st3" d="M44.028 111.564c-3.371 0-5.907-1.582-7.332-4.576a1.5 1.5 0 0 1 2.709-1.289c.931 1.955 2.399 2.865 4.623 2.865 2.6 0 4.159-1.643 4.573-2.747a1.5 1.5 0 0 1 2.81 1.053c-.847 2.261-3.518 4.694-7.383 4.694z"/><path class="st14" d="m44.094 133.689-.016.017-.025-.017.016-.024z"/><path class="st3" d="M44.077 135.206c-.288 0-.578-.083-.831-.252a1.536 1.536 0 0 1-.653-.969 1.515 1.515 0 0 1 .22-1.14c.25-.367.658-.617 1.1-.661.442-.039.89.098 1.207.409.286.28.46.676.462 1.076.002.4-.144.797-.427 1.08l-.017.017c-.289.291-.674.44-1.061.44z"/><path class="st14" d="m44.069 133.665.025.024-.016.017-.025-.017z"/><path class="st3" d="M44.065 135.199a1.47 1.47 0 0 1-.82-.245 1.536 1.536 0 0 1-.653-.969 1.515 1.515 0 0 1 .22-1.14c.25-.367.658-.617 1.1-.661.442-.039.89.098 1.207.409l.025.024a1.498 1.498 0 0 1 .011 2.131 1.537 1.537 0 0 1-1.09.451z"/><path class="st7" d="M21.642 183.497a4.988 4.988 0 0 1-4.988-4.988v-4.988h9.976v4.988a4.988 4.988 0 0 1-4.988 4.988z"/><path class="st3" d="M21.642 184.997a6.495 6.495 0 0 1-6.488-6.488v-4.988a1.5 1.5 0 0 1 1.5-1.5h9.976a1.5 1.5 0 0 1 1.5 1.5v4.988a6.495 6.495 0 0 1-6.488 6.488zm-3.488-9.977v3.488a3.492 3.492 0 0 0 3.488 3.488 3.492 3.492 0 0 0 3.488-3.488v-3.488h-6.976z"/><path class="st4" d="M98.055 125.815v9.901H61.476v37.808H16.652v-35.442c0-3.842 1.756-7.271 4.501-9.547a12.419 12.419 0 0 1 4.188-2.267 12.58 12.58 0 0 1 3.677-.552h2.201l-.025.017 8.491 11.27 4.394-3.298 4.378 3.298 8.492-11.27-.025-.017 41.131.099z"/><path class="st3" d="M61.476 175.024H16.652a1.5 1.5 0 0 1-1.5-1.5v-35.441c0-4.144 1.838-8.045 5.044-10.702a13.898 13.898 0 0 1 4.696-2.544 14.15 14.15 0 0 1 4.126-.62h2.201c.583 0 1.106.337 1.353.852l7.411 9.836 3.197-2.398c.535-.4 1.27-.4 1.803.001l3.18 2.395 7.457-9.896a1.481 1.481 0 0 1 1.305-.789h.003l41.13.099a1.5 1.5 0 0 1 1.497 1.5v9.901a1.5 1.5 0 0 1-1.5 1.5h-35.08v36.308a1.499 1.499 0 0 1-1.499 1.498zm-43.324-3h41.824v-36.308a1.5 1.5 0 0 1 1.5-1.5h35.08v-6.905l-38.847-.093-8.053 10.687a1.5 1.5 0 0 1-2.1.296l-3.477-2.619-3.492 2.62a1.5 1.5 0 0 1-2.099-.297l-8.053-10.689h-1.417a11.12 11.12 0 0 0-3.239.486 10.874 10.874 0 0 0-7.627 10.38v33.942z"/><path class="st7" d="M107.89 130.77a4.951 4.951 0 0 1-4.947 4.947h-4.889v-9.901l4.889.008a4.95 4.95 0 0 1 4.947 4.946z"/><path class="st3" d="M102.944 137.217h-4.889a1.5 1.5 0 0 1-1.5-1.5v-9.901a1.502 1.502 0 0 1 1.5-1.5h.002l4.889.008c3.552 0 6.444 2.893 6.444 6.447a6.453 6.453 0 0 1-6.446 6.446zm-3.389-3h3.389a3.45 3.45 0 0 0 3.447-3.446c0-1.9-1.546-3.447-3.447-3.447l-3.389-.006v6.899zM26.63 175.021a1.5 1.5 0 0 1-1.5-1.5v-33.09a1.5 1.5 0 1 1 3 0v33.09a1.5 1.5 0 0 1-1.5 1.5z"/><path class="st9" d="m49.719 162.928-5.687 6.473-5.695-6.473 3.153-20.435h5.085z"/><path class="st3" d="M44.032 170.901c-.431 0-.841-.186-1.126-.509l-5.695-6.474a1.501 1.501 0 0 1-.356-1.22l3.152-20.435a1.5 1.5 0 0 1 1.482-1.271h5.085c.74 0 1.37.54 1.482 1.271l3.144 20.435c.067.439-.062.885-.355 1.219l-5.687 6.474c-.283.325-.694.51-1.126.51zm-4.105-8.437 4.104 4.666 4.099-4.666-2.842-18.471h-2.513l-2.848 18.471z"/><path class="st9" d="m48.328 133.686-1.76 8.807h-5.075l-1.718-8.807z"/><path class="st3" d="M46.568 143.993h-5.075a1.5 1.5 0 0 1-1.472-1.213l-1.719-8.807a1.5 1.5 0 0 1 1.472-1.787h8.553a1.5 1.5 0 0 1 1.471 1.794l-1.76 8.807a1.498 1.498 0 0 1-1.47 1.206zm-3.839-3h2.609l1.16-5.807h-4.902l1.133 5.807z"/><path transform="rotate(-37.003 37.642 129.702)" class="st14" d="M34.885 122.653h5.513v14.113h-5.513z"/><path class="st3" d="M39.687 138.505a1.5 1.5 0 0 1-1.197-.598l-8.494-11.271a1.499 1.499 0 0 1 .295-2.1l4.403-3.318a1.498 1.498 0 0 1 2.1.296l8.494 11.271a1.5 1.5 0 0 1-.295 2.101l-4.403 3.318a1.508 1.508 0 0 1-.903.301zm-6.394-12.477 6.689 8.876 2.007-1.513-6.689-8.876-2.007 1.513z"/><path transform="rotate(-142.997 50.505 129.708)" class="st14" d="M47.746 122.653h5.513v14.113h-5.513z"/><path class="st3" d="M48.458 138.505c-.324 0-.641-.104-.903-.302l-4.403-3.318a1.5 1.5 0 0 1-.295-2.101l8.494-11.271a1.5 1.5 0 0 1 2.1-.296l4.403 3.318a1.5 1.5 0 0 1 .295 2.1l-8.494 11.271a1.5 1.5 0 0 1-1.197.599zm-2.303-5.113 2.007 1.513 6.688-8.876-2.007-1.513-6.688 8.876z"/><path class="st8" d="M190.652 134.026h26v-8.662a5.204 5.204 0 0 0-5.204-5.204h-15.592a5.204 5.204 0 0 0-5.204 5.204v8.662z"/><path class="st3" d="M216.652 135.525h-26a1.5 1.5 0 0 1-1.5-1.5v-8.661a6.712 6.712 0 0 1 6.704-6.704h15.593a6.712 6.712 0 0 1 6.704 6.704v8.661a1.501 1.501 0 0 1-1.501 1.5zm-24.5-3h23v-7.161a3.709 3.709 0 0 0-3.704-3.704h-15.593a3.709 3.709 0 0 0-3.704 3.704v7.161z"/><path class="st22" d="M108.279 192.61H75.963a5.311 5.311 0 0 0-5.311 5.311v5.808a5.311 5.311 0 0 0 5.311 5.311h158.075a5.311 5.311 0 0 0 5.311-5.311v-5.808a5.311 5.311 0 0 0-5.311-5.311H108.279z"/><path class="st3" d="M234.038 210.539H75.962a6.82 6.82 0 0 1-6.811-6.811v-5.808a6.818 6.818 0 0 1 6.811-6.811h32.317a1.5 1.5 0 1 1 0 3H75.962a3.816 3.816 0 0 0-3.811 3.811v5.808a3.815 3.815 0 0 0 3.811 3.811h158.075a3.815 3.815 0 0 0 3.811-3.811v-5.808a3.815 3.815 0 0 0-3.811-3.811H121.024a1.5 1.5 0 1 1 0-3h113.014a6.82 6.82 0 0 1 6.811 6.811v5.808c-.001 3.755-3.056 6.811-6.811 6.811z"/><path class="st22" d="M85.848 209.038h15.202v30.243H85.848z"/><path class="st3" d="M101.05 240.78H85.848a1.5 1.5 0 0 1-1.5-1.5v-30.243a1.5 1.5 0 0 1 1.5-1.5h15.203a1.5 1.5 0 0 1 1.5 1.5v30.243a1.501 1.501 0 0 1-1.501 1.5zm-13.702-3H99.55v-27.243H87.348v27.243z"/><path class="st22" d="M208.954 209.038h15.191v30.243h-15.191z"/><path class="st3" d="M224.146 240.78h-15.191a1.5 1.5 0 0 1-1.5-1.5v-30.243a1.5 1.5 0 0 1 1.5-1.5h15.191a1.5 1.5 0 0 1 1.5 1.5v30.243a1.5 1.5 0 0 1-1.5 1.5zm-13.691-3h12.191v-27.243h-12.191v27.243z"/><path d="M132.767 189.353v-8.62a3.257 3.257 0 0 1 3.257-3.257h66.725a3.257 3.257 0 0 1 3.257 3.257v8.62a3.257 3.257 0 0 1-3.257 3.257h-66.725a3.257 3.257 0 0 1-3.257-3.257z" style="fill:#8ac5dc"/><path class="st3" d="M202.749 194.109h-66.725a4.762 4.762 0 0 1-4.757-4.756v-8.62a4.762 4.762 0 0 1 4.757-4.757h66.725a4.762 4.762 0 0 1 4.757 4.757v8.62a4.762 4.762 0 0 1-4.757 4.756zm-66.726-15.132c-.969 0-1.757.788-1.757 1.757v8.62c0 .968.788 1.756 1.757 1.756h66.725c.969 0 1.757-.788 1.757-1.756v-8.62c0-.969-.788-1.757-1.757-1.757h-66.725z"/><path class="st22" d="M177.889 177.477h15.198v15.133h-15.198z"/><path class="st3" d="M193.087 194.109h-15.198a1.5 1.5 0 0 1-1.5-1.5v-15.133a1.5 1.5 0 0 1 1.5-1.5h15.198a1.5 1.5 0 0 1 1.5 1.5v15.133a1.5 1.5 0 0 1-1.5 1.5zm-13.698-3h12.198v-12.133h-12.198v12.133z"/><path d="M132.767 166.231v7.989a3.257 3.257 0 0 0 3.257 3.257h53.807a3.257 3.257 0 0 0 3.257-3.257v-7.989a3.257 3.257 0 0 0-3.257-3.257h-53.807a3.257 3.257 0 0 0-3.257 3.257z" style="fill:#fae6ca"/><path class="st3" d="M189.831 178.977h-53.807a4.762 4.762 0 0 1-4.757-4.757v-7.989a4.762 4.762 0 0 1 4.757-4.757h53.807a4.762 4.762 0 0 1 4.756 4.757v7.989a4.762 4.762 0 0 1-4.756 4.757zm-53.808-14.503c-.969 0-1.757.788-1.757 1.757v7.989c0 .969.788 1.757 1.757 1.757h53.807c.968 0 1.756-.788 1.756-1.757v-7.989c0-.969-.788-1.757-1.756-1.757h-53.807z"/><path style="fill:#d6df58" d="M169.93 162.974h12.517v14.503H169.93z"/><path class="st3" d="M182.447 178.977H169.93a1.5 1.5 0 0 1-1.5-1.5v-14.503a1.5 1.5 0 0 1 1.5-1.5h12.517a1.5 1.5 0 0 1 1.5 1.5v14.503a1.5 1.5 0 0 1-1.5 1.5zm-11.017-3h9.517v-11.503h-9.517v11.503z"/><path d="M237.852 139.91v3.36c0 2.42-1.97 4.39-4.39 4.39h-15c2.42 0 4.39-1.97 4.39-4.39v-3.36c0-2.42-1.97-4.38-4.39-4.38h15c2.42 0 4.39 1.96 4.39 4.38z" style="fill:#b9c239"/><path d="M221.352 18.22h-15c3.92 0 7.1 3.18 7.1 7.1v93.64c2.72.86 4.7 3.41 4.7 6.4v7.17h10.3V25.32c0-3.92-3.18-7.1-7.1-7.1z" style="fill:#decaad"/><path d="M237.852 197.92v5.81c0 2.1-1.71 3.81-3.81 3.81h-15c2.1 0 3.81-1.71 3.81-3.81v-5.81c0-2.1-1.71-3.81-3.81-3.81h15c2.1 0 3.81 1.71 3.81 3.81z" style="fill:#d34e5c"/></g></svg>